<svg id="iconos_notificacion" data-name="iconos notificacion" xmlns="http://www.w3.org/2000/svg" width="30" height="26.337" viewBox="0 0 30 26.337">
  <g id="Grupo_18088" data-name="Grupo 18088">
    <path id="Trazado_27907" data-name="Trazado 27907" d="M188.424,28.329a3.929,3.929,0,0,1-3.385-5.89l0,0L196.147,3.9V3.888a3.929,3.929,0,0,1,6.718,0l11.111,18.533a3.93,3.93,0,0,1-3.349,5.913ZM198.4,5.251,187.308,23.768a1.31,1.31,0,0,0,1.132,1.946h22.173a1.31,1.31,0,0,0,1.106-1.965l-11.089-18.5a1.3,1.3,0,0,0-.8-.587,1.28,1.28,0,0,0-.992.152,1.326,1.326,0,0,0-.439.439" transform="translate(-184.514 -1.997)" fill="#ffc129"/>
    <path id="Trazado_27908" data-name="Trazado 27908" d="M196.279,15.959a1.31,1.31,0,0,1-1.31-1.31V9.41a1.31,1.31,0,0,1,2.62,0v5.239a1.31,1.31,0,0,1-1.31,1.31" transform="translate(-181.275 -0.106)" fill="#ffc129"/>
    <path id="Trazado_27909" data-name="Trazado 27909" d="M196.29,18.72a1.31,1.31,0,1,1-.013-2.62h.013a1.31,1.31,0,0,1,0,2.62" transform="translate(-181.273 2.373)" fill="#ffc129"/>
  </g>
</svg>
