<svg id="iconos_notificacion" data-name="iconos notificacion" xmlns="http://www.w3.org/2000/svg" width="30" height="30" viewBox="0 0 30 30">
  <g id="icono-x-circle-ppal">
    <g id="Grupo_18087" data-name="Grupo 18087">
      <path id="Trazado_28432" data-name="Trazado 28432" d="M246.563,666.539a15,15,0,1,1,15-15,15,15,0,0,1-15,15m0-27.273a12.273,12.273,0,1,0,12.273,12.273,12.272,12.272,0,0,0-12.273-12.273" transform="translate(-231.563 -636.539)" fill="red"/>
      <path id="Trazado_28433" data-name="Trazado 28433" d="M239.927,654.444a1.363,1.363,0,0,1-.964-2.328l8.182-8.182a1.364,1.364,0,0,1,1.928,1.928l-8.182,8.182a1.36,1.36,0,0,1-.964.4" transform="translate(-229.018 -633.989)" fill="red"/>
      <path id="Trazado_28434" data-name="Trazado 28434" d="M248.1,654.444a1.36,1.36,0,0,1-.964-.4l-8.182-8.182a1.364,1.364,0,0,1,1.928-1.928l8.182,8.182a1.364,1.364,0,0,1-.964,2.328" transform="translate(-229.013 -633.989)" fill="red"/>
    </g>
  </g>
</svg>
