<svg xmlns="http://www.w3.org/2000/svg" width="16" height="15.987" viewBox="0 0 16 15.987">
  <g id="icono-arrow-rigth-ppal" transform="translate(0 0)">
    <path id="Trazado_28456" data-name="Trazado 28456" d="M838.893,11.382a.99.99,0,0,0,.07-.347c0-.012.007-.022.007-.035s-.006-.02-.006-.032a.978.978,0,0,0-.287-.675l-7-7a1,1,0,0,0-1.414,1.414L835.556,10H823.97a1,1,0,0,0,0,2h11.586l-5.293,5.293a1,1,0,1,0,1.414,1.414l7-7a.991.991,0,0,0,.217-.326" transform="translate(-822.97 -3.013)" fill="#187385"/>
  </g>
</svg>
