<svg id="icono-trash-2-ppal" xmlns="http://www.w3.org/2000/svg" width="20" height="22" viewBox="0 0 20 22">
  <path id="Trazado_28363" data-name="Trazado 28363" d="M673.016,545.152h-4v-1a3,3,0,0,0-3-3h-4a3,3,0,0,0-3,3v1h-4a1,1,0,0,0,0,2h1v13a3,3,0,0,0,3,3h10a3,3,0,0,0,3-3v-13h1a1,1,0,0,0,0-2m-12-1a1,1,0,0,1,1-1h4a1,1,0,0,1,1,1v1h-6Zm9,16a1,1,0,0,1-1,1h-10a1,1,0,0,1-1-1v-13h12Z" transform="translate(-654.016 -541.152)" fill="#187385"/>
  <path id="Trazado_28364" data-name="Trazado 28364" d="M662.016,550.152a1,1,0,0,0-1,1v6a1,1,0,0,0,2,0v-6a1,1,0,0,0-1-1" transform="translate(-654.016 -541.152)" fill="#187385"/>
  <path id="Trazado_28365" data-name="Trazado 28365" d="M666.016,550.152a1,1,0,0,0-1,1v6a1,1,0,0,0,2,0v-6a1,1,0,0,0-1-1" transform="translate(-654.016 -541.152)" fill="#187385"/>
</svg>
