<svg id="icono-clock-ppal" xmlns="http://www.w3.org/2000/svg" width="22" height="22" viewBox="0 0 22 22">
  <path id="Trazado_27974" data-name="Trazado 27974" d="M872.47,115a11,11,0,1,1,11-11,11,11,0,0,1-11,11m0-20a9,9,0,1,0,9,9,9,9,0,0,0-9-9" transform="translate(-861.47 -93)" fill="#187385"/>
  <path id="Trazado_27975" data-name="Trazado 27975" d="M876.469,107a1,1,0,0,1-.446-.1l-4-2a1,1,0,0,1-.553-.9V98a1,1,0,0,1,2,0v5.382l3.447,1.723a1,1,0,0,1-.448,1.895" transform="translate(-861.47 -93)" fill="#187385"/>
</svg>
