<svg id="icono-edit-3-ppal" xmlns="http://www.w3.org/2000/svg" width="16" height="16" viewBox="0 0 16 16">
  <path id="Trazado_28052" data-name="Trazado 28052" d="M510.5,214.3h-7.542a.838.838,0,0,1,0-1.676H510.5a.838.838,0,0,1,0,1.676" transform="translate(-495.343 -198.298)" fill="#187385"/>
  <path id="Trazado_28053" data-name="Trazado 28053" d="M493.922,211.53a.819.819,0,0,1-.8-.838.871.871,0,0,1,.024-.2l.8-3.352a.848.848,0,0,1,.21-.389l9.978-10.476a2.463,2.463,0,0,1,3.523,0,2.712,2.712,0,0,1,0,3.7l-9.978,10.476a.79.79,0,0,1-.371.22l-3.193.838a.75.75,0,0,1-.193.025m1.517-3.762-.422,1.772,1.688-.442,9.818-10.308a.977.977,0,0,0,0-1.329.885.885,0,0,0-1.266,0Z" transform="translate(-493.124 -195.53)" fill="#187385"/>
</svg>
