<svg xmlns="http://www.w3.org/2000/svg" width="18.43" height="21.307" viewBox="0 0 18.43 21.307">
  <g id="icono-sim-card" transform="translate(-672.482 -373.798)">
    <path id="Trazado_38591" data-name="Trazado 38591" d="M687.171,373.8h-6.657a3.742,3.742,0,0,0-2.806,1.267l-4.291,4.867a3.732,3.732,0,0,0-.935,2.475v8.958a3.757,3.757,0,0,0,3.742,3.74h10.947a3.755,3.755,0,0,0,3.741-3.741V377.54A3.756,3.756,0,0,0,687.171,373.8Zm1.642,17.565a1.653,1.653,0,0,1-1.643,1.643H676.224a1.645,1.645,0,0,1-1.642-1.642v-8.957a1.64,1.64,0,0,1,.409-1.085l4.292-4.868a1.645,1.645,0,0,1,1.232-.556h6.654a1.654,1.654,0,0,1,1.644,1.644Z" fill="#187385"/>
    <path id="Trazado_38592" data-name="Trazado 38592" d="M685.831,376.7a1.051,1.051,0,0,0-1.049,1.051v4.543a1.05,1.05,0,0,0,2.1,0v-4.543A1.052,1.052,0,0,0,685.831,376.7Z" fill="#187385"/>
    <path id="Trazado_38593" data-name="Trazado 38593" d="M682.5,376.7a1.051,1.051,0,0,0-1.05,1.051v4.543a1.05,1.05,0,0,0,2.1,0v-4.543A1.051,1.051,0,0,0,682.5,376.7Z" fill="#187385"/>
    <path id="Trazado_38594" data-name="Trazado 38594" d="M679.161,378.315a1.051,1.051,0,0,0-1.05,1.05v2.928a1.05,1.05,0,0,0,1.049,1.049h0a1.051,1.051,0,0,0,1.05-1.05v-2.927A1.051,1.051,0,0,0,679.161,378.315Z" fill="#187385"/>
  </g>
</svg>
