<svg xmlns="http://www.w3.org/2000/svg" width="22" height="22" viewBox="0 0 22 22">
  <g id="icon-reporta-tu-equipo" transform="translate(-1965.912 -766.824)">
    <path id="Trazado_38587" data-name="Trazado 38587" d="M1973.921,782.824h-.011a1.006,1.006,0,1,0,.011,0Z" fill="#187385"/>
    <path id="Trazado_38588" data-name="Trazado 38588" d="M1987.65,780.373l-4.22-7.04a1.911,1.911,0,0,0-.616-.62c-.007,0-.013-.01-.019-.014a1.842,1.842,0,0,0-.883-.257v-2.618a3,3,0,0,0-3-3h-10a3,3,0,0,0-3,3v16a3,3,0,0,0,3,3h10a3,3,0,0,0,3-3v-2.6h4.129a1.906,1.906,0,0,0,.932-.258,1.892,1.892,0,0,0,.677-2.593Zm-7.738,2.85v2.6a1,1,0,0,1-1,1h-10a1,1,0,0,1-1-1v-16a1,1,0,0,1,1-1h10a1,1,0,0,1,1,1v3.982l-3.939,6.58a1.892,1.892,0,0,0,1.63,2.837Zm6.119-1.793-3.217,0-2,0-3.243,0-.045-.121,0,0,3.29-5.49.923-1.541.16,0,.917,1.535,3.3,5.533A.109.109,0,0,1,1986.031,781.43Z" fill="#187385"/>
    <path id="Trazado_38589" data-name="Trazado 38589" d="M1981.818,779.135a.79.79,0,0,0,.789-.789V776.6a.789.789,0,0,0-.787-.788h0a.792.792,0,0,0-.789.788v1.749A.791.791,0,0,0,1981.818,779.135Z" fill="#187385"/>
    <path id="Trazado_38590" data-name="Trazado 38590" d="M1981.817,779.3a.791.791,0,0,0-.786.792.79.79,0,0,0,.788.786h.005a.789.789,0,1,0-.007-1.578Z" fill="#187385"/>
  </g>
</svg>
