<svg id="icon-imei-duplicado" xmlns="http://www.w3.org/2000/svg" xmlns:xlink="http://www.w3.org/1999/xlink" width="36.208" height="21.032" viewBox="0 0 36.208 21.032">
  <defs>
    <clipPath id="clip-path">
      <rect id="Rectángulo_10853" data-name="Rectángulo 10853" width="36.208" height="21.032" fill="#187385"/>
    </clipPath>
  </defs>
  <g id="Grupo_20955" data-name="Grupo 20955" clip-path="url(#clip-path)">
    <path id="Trazado_34231" data-name="Trazado 34231" d="M8.111,15.856H8.1a.905.905,0,1,0,.01,0" transform="translate(0 -0.001)" fill="#187385"/>
    <path id="Trazado_34232" data-name="Trazado 34232" d="M28.111,15.856H28.1a.905.905,0,1,0,.01,0" transform="translate(0 -0.001)" fill="#187385"/>
    <path id="Trazado_34233" data-name="Trazado 34233" d="M33.506,0H22.7A2.788,2.788,0,0,0,20,2.868V4.933a5.794,5.794,0,0,0-3.792.145V2.868A2.789,2.789,0,0,0,13.506,0H2.7A2.788,2.788,0,0,0,0,2.868v15.3a2.788,2.788,0,0,0,2.7,2.868h10.8a2.789,2.789,0,0,0,2.7-2.868v-2.21A5.794,5.794,0,0,0,20,16.1v2.065a2.788,2.788,0,0,0,2.7,2.868H33.506a2.789,2.789,0,0,0,2.7-2.868V2.868A2.789,2.789,0,0,0,33.506,0m-19.1,18.164a.929.929,0,0,1-.9.956H2.7a.93.93,0,0,1-.9-.956V2.868a.93.93,0,0,1,.9-.956h10.8a.929.929,0,0,1,.9.956V6.187a5.814,5.814,0,0,0,0,8.658Zm3.888-3.4a4.25,4.25,0,1,1,4.25-4.25,4.25,4.25,0,0,1-4.25,4.25m16.112,3.4a.929.929,0,0,1-.9.956H22.7a.93.93,0,0,1-.9-.956V15.182a5.818,5.818,0,0,0,0-9.332V2.868a.93.93,0,0,1,.9-.956H33.506a.929.929,0,0,1,.9.956Z" transform="translate(0 -0.001)" fill="#187385"/>
    <path id="Trazado_34234" data-name="Trazado 34234" d="M17.292,12.713a.757.757,0,0,1-.534-.22l-1.31-1.309a.76.76,0,0,1-.219-.55.748.748,0,0,1,.233-.534.763.763,0,0,1,1.059,0l.771.771L19.63,8.54a.76.76,0,0,1,1.081.011.76.76,0,0,1,0,1.058l-2.881,2.88a.763.763,0,0,1-.538.224Z" transform="translate(0 -0.001)" fill="#187385"/>
  </g>
</svg>
