<svg id="icon-actualiza-info" xmlns="http://www.w3.org/2000/svg" xmlns:xlink="http://www.w3.org/1999/xlink" width="24.863" height="18.648" viewBox="0 0 24.863 18.648">
  <defs>
    <clipPath id="clip-path">
      <rect id="Rectángulo_10856" data-name="Rectángulo 10856" width="24.863" height="18.648" fill="#187385"/>
    </clipPath>
  </defs>
  <g id="Grupo_20959" data-name="Grupo 20959" clip-path="url(#clip-path)">
    <path id="Trazado_34241" data-name="Trazado 34241" d="M21.755,0H3.108A3.109,3.109,0,0,0,0,3.108V15.54a3.108,3.108,0,0,0,3.108,3.108H21.755a3.107,3.107,0,0,0,3.108-3.108V3.108A3.108,3.108,0,0,0,21.755,0M2.072,6.216V3.108A1.036,1.036,0,0,1,3.108,2.072H21.755a1.036,1.036,0,0,1,1.036,1.036V6.216l0,2.068v7.252a1.036,1.036,0,0,1-1.036,1.036H3.108a1.036,1.036,0,0,1-1.036-1.036V6.216Z" transform="translate(0 0)" fill="#187385"/>
    <path id="Trazado_34242" data-name="Trazado 34242" d="M18.683,4H11.6a1.181,1.181,0,0,0-1.181,1.181V9.9A1.181,1.181,0,0,0,11.6,11.084h7.083A1.18,1.18,0,0,0,19.863,9.9V5.181A1.18,1.18,0,0,0,18.683,4M13.4,10.13a.774.774,0,0,1,.765-.7h2.083a.774.774,0,0,1,.765.7Zm5.076,0H17.53a1.294,1.294,0,0,0-1.286-1.222H14.161a1.294,1.294,0,0,0-1.286,1.222H11.812a.37.37,0,0,1-.37-.37V5.322a.37.37,0,0,1,.37-.37h6.659a.37.37,0,0,1,.37.37V9.76a.37.37,0,0,1-.37.37" transform="translate(0 0)" fill="#187385"/>
    <path id="Trazado_34243" data-name="Trazado 34243" d="M15.2,5.783a1.3,1.3,0,1,0,1.3,1.3,1.3,1.3,0,0,0-1.3-1.3m0,2.083a.781.781,0,1,1,.781-.781.781.781,0,0,1-.781.781" transform="translate(0 0)" fill="#187385"/>
  </g>
</svg>
