<svg id="icon-registra-tu-equipo" xmlns="http://www.w3.org/2000/svg" xmlns:xlink="http://www.w3.org/1999/xlink" width="20.982" height="22" viewBox="0 0 20.982 22">
  <defs>
    <clipPath id="clip-path">
      <rect id="Rectángulo_10854" data-name="Rectángulo 10854" width="20.982" height="22" fill="#187385"/>
    </clipPath>
  </defs>
  <g id="Grupo_20956" data-name="Grupo 20956" clip-path="url(#clip-path)">
    <path id="Trazado_34235" data-name="Trazado 34235" d="M14.362,13.365a.757.757,0,0,1-.534-.22l-1.31-1.309a.76.76,0,0,1-.219-.55.748.748,0,0,1,.233-.534.763.763,0,0,1,1.059,0l.771.771L16.7,9.192a.76.76,0,0,1,1.081.011.76.76,0,0,1,0,1.058L14.9,13.141a.763.763,0,0,1-.538.224Z" fill="#187385"/>
    <path id="Trazado_34236" data-name="Trazado 34236" d="M20.982,11.168A5.83,5.83,0,0,0,16,5.4V3a2.848,2.848,0,0,0-2.667-3H2.667A2.848,2.848,0,0,0,0,3V19a2.848,2.848,0,0,0,2.667,3H13.333A2.848,2.848,0,0,0,16,19V16.933a5.83,5.83,0,0,0,4.982-5.765M13.333,20H2.667a.95.95,0,0,1-.889-1V3a.95.95,0,0,1,.889-1H13.333a.95.95,0,0,1,.889,1V5.414a5.827,5.827,0,0,0,0,11.508V19a.95.95,0,0,1-.889,1m1.815-4.582a4.25,4.25,0,1,1,4.25-4.25,4.25,4.25,0,0,1-4.25,4.25" fill="#187385"/>
    <path id="Trazado_34237" data-name="Trazado 34237" d="M8.006,16H8a1.012,1.012,0,0,0,.009,2.01,1.013,1.013,0,0,0,0-2.01" fill="#187385"/>
  </g>
</svg>
